<svg enable-background="new 0 0 169.1 169.1" viewBox="0 0 169.1 169.1" xmlns="http://www.w3.org/2000/svg"><g fill="#c3ad6c"><path d="m122.4 0h-75.7c-25.8 0-46.7 20.9-46.7 46.7v75.8c0 25.7 20.9 46.7 46.7 46.7h75.8c25.7 0 46.7-20.9 46.7-46.7v-75.8c-.1-25.8-21.1-46.7-46.8-46.7zm31.7 122.4c0 17.5-14.2 31.7-31.7 31.7h-75.7c-17.5 0-31.7-14.2-31.7-31.7v-75.7c0-17.5 14.2-31.7 31.7-31.7h75.8c17.5 0 31.7 14.2 31.7 31.7z"/><path d="m84.5 41c-24 0-43.5 19.5-43.5 43.5s19.5 43.6 43.6 43.6 43.6-19.5 43.6-43.6c-.1-24-19.6-43.5-43.7-43.5zm0 72.1c-15.7 0-28.6-12.8-28.6-28.6.1-15.7 12.9-28.5 28.6-28.5s28.6 12.8 28.6 28.6c0 15.7-12.8 28.5-28.6 28.5z"/><path d="m129.9 28.3c-2.9 0-5.7 1.2-7.8 3.2s-3.2 4.9-3.2 7.8 1.2 5.7 3.2 7.8c2 2 4.9 3.2 7.8 3.2s5.7-1.2 7.8-3.2 3.2-4.9 3.2-7.8-1.2-5.7-3.2-7.8-4.9-3.2-7.8-3.2z"/></g></svg>
