<svg xmlns="http://www.w3.org/2000/svg" xmlns:xlink="http://www.w3.org/1999/xlink" viewBox="0 0 357.28 115.51"><defs><style>.cls-1,.cls-10,.cls-11,.cls-12,.cls-13,.cls-14,.cls-15,.cls-16,.cls-17,.cls-18,.cls-19,.cls-2,.cls-20,.cls-3,.cls-4,.cls-5,.cls-6,.cls-7,.cls-8,.cls-9{stroke:#c3ad6c;stroke-miterlimit:10;}.cls-1{fill:url(#linear-gradient);}.cls-2{fill:url(#linear-gradient-2);}.cls-3{fill:url(#linear-gradient-3);}.cls-4{fill:url(#linear-gradient-4);}.cls-5{fill:url(#linear-gradient-5);}.cls-6{fill:url(#linear-gradient-6);}.cls-7{fill:url(#linear-gradient-7);}.cls-8{fill:url(#linear-gradient-8);}.cls-9{fill:url(#linear-gradient-9);}.cls-10{fill:url(#linear-gradient-10);}.cls-11{fill:url(#linear-gradient-11);}.cls-12{fill:url(#linear-gradient-12);}.cls-13{fill:url(#linear-gradient-13);}.cls-14{fill:url(#linear-gradient-14);}.cls-15{fill:url(#linear-gradient-15);}.cls-16{fill:url(#linear-gradient-16);}.cls-17{fill:url(#linear-gradient-17);}.cls-18{fill:url(#linear-gradient-18);}.cls-19{fill:url(#linear-gradient-19);}.cls-20{fill:url(#linear-gradient-20);}</style><linearGradient id="linear-gradient" x1="31.76" y1="0.61" x2="31.76" y2="81.8" gradientUnits="userSpaceOnUse"><stop offset="0" stop-color="#c3ad6c"/><stop offset="0.21" stop-color="#cbb677"/><stop offset="0.57" stop-color="#e0cd94"/><stop offset="1" stop-color="#ffefbf"/></linearGradient><linearGradient id="linear-gradient-2" x1="31.76" y1="0.5" x2="31.76" y2="81.91" xlink:href="#linear-gradient"/><linearGradient id="linear-gradient-3" x1="70.43" y1="84.73" x2="70.43" y2="113.98" xlink:href="#linear-gradient"/><linearGradient id="linear-gradient-4" x1="70.43" y1="84.6" x2="70.43" y2="114.3" xlink:href="#linear-gradient"/><linearGradient id="linear-gradient-5" x1="101.36" y1="84.73" x2="101.36" y2="112.72" xlink:href="#linear-gradient"/><linearGradient id="linear-gradient-6" x1="101.36" y1="84.6" x2="101.36" y2="112.85" xlink:href="#linear-gradient"/><linearGradient id="linear-gradient-7" x1="132.29" y1="84.73" x2="132.29" y2="113.98" xlink:href="#linear-gradient"/><linearGradient id="linear-gradient-8" x1="132.29" y1="84.6" x2="132.29" y2="114.3" xlink:href="#linear-gradient"/><linearGradient id="linear-gradient-9" x1="171.1" y1="83.47" x2="171.1" y2="112.72" xlink:href="#linear-gradient"/><linearGradient id="linear-gradient-10" x1="171.1" y1="83.15" x2="171.1" y2="112.85" xlink:href="#linear-gradient"/><linearGradient id="linear-gradient-11" x1="343.15" y1="83.79" x2="343.15" y2="113.04" xlink:href="#linear-gradient"/><linearGradient id="linear-gradient-12" x1="343.15" y1="83.47" x2="343.15" y2="113.17" xlink:href="#linear-gradient"/><linearGradient id="linear-gradient-13" x1="208.12" y1="84.73" x2="208.12" y2="112.72" xlink:href="#linear-gradient"/><linearGradient id="linear-gradient-14" x1="208.12" y1="84.6" x2="208.12" y2="112.85" xlink:href="#linear-gradient"/><linearGradient id="linear-gradient-15" x1="234.85" y1="84.73" x2="234.85" y2="112.72" xlink:href="#linear-gradient"/><linearGradient id="linear-gradient-16" x1="234.85" y1="84.6" x2="234.85" y2="112.85" xlink:href="#linear-gradient"/><linearGradient id="linear-gradient-17" x1="265.99" y1="84.73" x2="265.99" y2="112.72" xlink:href="#linear-gradient"/><linearGradient id="linear-gradient-18" x1="265.99" y1="84.6" x2="265.99" y2="112.85" xlink:href="#linear-gradient"/><linearGradient id="linear-gradient-19" x1="305.73" y1="84.72" x2="305.73" y2="112.72" xlink:href="#linear-gradient"/><linearGradient id="linear-gradient-20" x1="305.72" y1="84.59" x2="305.72" y2="112.85" xlink:href="#linear-gradient"/></defs><title>vivalindadourado</title><g id="Layer_2" data-name="Layer 2"><g id="Layer_1-2" data-name="Layer 1"><path class="cls-1" d="M28.32,81.8a.49.49,0,0,1-.35-.21,3.84,3.84,0,0,1-.62-2.38,29.65,29.65,0,0,1,3.35-9.31A28.56,28.56,0,0,1,22,71.28,22.42,22.42,0,0,1,.64,56.75a.3.3,0,0,1,0-.29c.08-.11.24-.17.5-.17a5,5,0,0,1,2.2.63,9,9,0,0,0,6.8,2.53,36.93,36.93,0,0,0,6.4-.8,35.91,35.91,0,0,1,6.32-.79c.43,0,.84,0,1.26.06l.22,0c-7.9-4.59-12.64-10.33-14.11-17.06-1.26-5.8,2.47-9.74,6.07-13.53l.24-.25c2.54-2.68,3.51-5.62,2.81-8.52C18.47,15,14.93,11.64,10.1,10c0,0-1-.41-.94-.78,0-.14.12-.23.33-.28a22.07,22.07,0,0,1,5-.54,32.31,32.31,0,0,1,20.29,7.81,41.84,41.84,0,0,1,3.86,4,11.16,11.16,0,0,1,1.52-.44c3.68-.92,6.15-2.93,7.14-5.8,1.2-3.5,0-8.11-3-12-.06-.07-.53-.82-.39-1.11a.24.24,0,0,1,.24-.13.63.63,0,0,1,.21,0C52,3.35,59.11,11.37,61.49,20.15c3.7,13.67.11,27.11-9.6,36,1.37-.24,2.65-.41,3.91-.52h0c.6,0,.89.85.93,1.7s-.2,1.83-.82,1.88c-15.06,1.25-24.67,8.95-27,21.67-.11.59-.29.88-.53.88ZM4.74,59.65a30.53,30.53,0,0,0,2.83,4.06,16.44,16.44,0,0,0,13.24,6.35,26.76,26.76,0,0,0,11.68-3,29.17,29.17,0,0,1,6.26-5.8l.73-.46.17,0-.07-.08A34.46,34.46,0,0,0,41.26,27a30.63,30.63,0,0,0-2.66-4.32c-.52-.71-1.06-1.4-1.61-2C31.15,13.86,23,9.8,15.11,9.8h-1c-.75,0-1.29,0-1.65,0h0a19.59,19.59,0,0,1,3,1.31c3.92,2.08,6.16,4.71,6.64,7.79.56,3.53-1.21,7.53-5.12,11.57-3.3,3.41-4.62,7.15-3.93,11.1,1.35,7.75,10,14.52,17,18q.81.34,1.59.74l.71.3c.5.21.75.4.8.59l0,.08-.1.17a1.16,1.16,0,0,1-.63.11,6.42,6.42,0,0,1-1.15-.12,2.27,2.27,0,0,1-.64-.19c-.28-.16-.56-.31-.84-.44l-.34-.15a14.51,14.51,0,0,0-6-1.13,46.9,46.9,0,0,0-6.51.63,46.15,46.15,0,0,1-6.51.63A14.56,14.56,0,0,1,4.74,59.65ZM40.35,22.29c8.17,10.86,9.59,24.27,3.83,36A34.88,34.88,0,0,0,60.95,32.71c1.39-11.32-3.8-23-12.64-28.46-1-.59-1.59-1-2-1.28h0a19,19,0,0,1,1.82,2.72c2.06,3.69,2.52,7,1.39,9.76C48.27,18.48,45.11,20.85,40.35,22.29Z"/><path class="cls-2" d="M44.09.71l.18,0c8.24,2.87,14.94,11.39,17.12,19.43,3.69,13.65.06,27.27-9.84,36.18,1.39-.26,2.8-.46,4.26-.58h0c1,0,1.1,3.28.05,3.37-13.64,1.13-24.56,7.94-27.14,21.75-.11.57-.26.79-.43.79-.46,0-1-1.7-.87-2.46a29.41,29.41,0,0,1,3.47-9.52A28.5,28.5,0,0,1,22,71.18,22.22,22.22,0,0,1,.74,56.71c-.09-.23.1-.31.41-.31a5,5,0,0,1,2.13.6,9.21,9.21,0,0,0,6.88,2.56c4.11,0,8.68-1.59,12.72-1.59.42,0,.84,0,1.25.05s.54.09.81.13C18,54.25,12,48.7,10.34,40.87,9.07,35,12.92,31.09,16.62,27.18c6.6-7,1.64-14.49-6.48-17.33-.2-.07-1.38-.68-.62-.85a22.05,22.05,0,0,1,4.94-.54,32,32,0,0,1,20.22,7.78,41.76,41.76,0,0,1,3.85,3.95l1.63-.4c9.41-2.35,9.42-11.3,4.17-18-.11-.14-.65-1.08-.23-1.08m-.17,57.84A35.16,35.16,0,0,0,61.05,32.73c1.31-10.61-3.3-22.8-12.68-28.57-1.69-1-2.38-1.58-2.46-1.58A30.9,30.9,0,0,1,48,5.73c4.79,8.61.35,14.07-7.86,16.5,8.08,10.65,9.88,24.17,3.75,36.32m-11.4,2.84a6.48,6.48,0,0,1-1.13-.11,2.14,2.14,0,0,1-.61-.18c-.28-.16-.56-.31-.85-.44l-.34-.15a14.67,14.67,0,0,0-6-1.14c-4.29,0-8.75,1.26-13,1.26a14.25,14.25,0,0,1-6.09-1.2,30,30,0,0,0,3,4.36,16.59,16.59,0,0,0,13.32,6.39,27,27,0,0,0,11.73-3,1.39,1.39,0,0,1,.15,0,26.07,26.07,0,0,1,6.12-5.77l.79-.51.07-.1A34.63,34.63,0,0,0,41.36,27a30.42,30.42,0,0,0-2.67-4.33c-.51-.7-1-1.38-1.61-2C31.6,14.21,23.5,9.69,15.11,9.69h-1c-1.12,0-1.78,0-2.06,0-.68,0,.88.19,3.38,1.53,9.34,5,8,12.49,1.49,19.19C6,41.72,19,54.2,30.06,59.6c.55.23,1.07.48,1.59.74l.72.31c.51.21.71.38.74.52a0,0,0,0,0,0,0,.08.08,0,0,1,0,.12h0a1.16,1.16,0,0,1-.56.09M44.09.5h0a.35.35,0,0,0-.33.19c-.19.39.39,1.23.4,1.23,3,3.89,4.2,8.46,3,11.92-1,2.84-3.42,4.83-7.06,5.74L38.6,20a41.55,41.55,0,0,0-3.79-3.88A32.41,32.41,0,0,0,14.46,8.25a22.31,22.31,0,0,0-5,.54c-.33.08-.41.25-.41.37,0,.47,1,.88,1,.89,4.79,1.67,8.31,5,9.19,8.55.69,2.86-.27,5.77-2.79,8.42l-.23.25c-3.63,3.82-7.37,7.77-6.1,13.63,1.44,6.64,6.06,12.31,13.74,16.88-.32,0-.66,0-1,0a36.06,36.06,0,0,0-6.34.79,36.77,36.77,0,0,1-6.38.79,8.93,8.93,0,0,1-6.73-2.5,5.1,5.1,0,0,0-2.28-.66.67.67,0,0,0-.58.22.4.4,0,0,0,0,.39A22.53,22.53,0,0,0,22,71.39a28.6,28.6,0,0,0,8.42-1.3,29.88,29.88,0,0,0-3.23,9.11,3.94,3.94,0,0,0,.65,2.47.6.6,0,0,0,.44.25c.41,0,.56-.55.64-1C31.33,68.28,40.9,60.61,55.91,59.37c.69-.06,1-1,.92-2s-.36-1.81-1-1.81h-.06c-1.15.09-2.32.24-3.56.45,9.54-9,13-22.31,9.36-35.9C59.2,11.31,52.11,3.26,44.34.55A.72.72,0,0,0,44.09.5ZM40.53,22.35c4.71-1.45,7.85-3.83,9.09-6.87,1.15-2.82.68-6.13-1.39-9.85a19.78,19.78,0,0,0-1.43-2.22l1.46.93c8.8,5.41,14,17.07,12.59,28.36A34.75,34.75,0,0,1,44.44,58C50,46.36,48.56,33.11,40.53,22.35ZM33.32,61.11c-.06-.23-.32-.43-.86-.66l-.4-.17-.31-.13c-.51-.26-1.05-.51-1.59-.74-7-3.43-15.61-10.16-17-17.87-.69-3.92.63-7.62,3.9-11,3.93-4.07,5.71-8.1,5.15-11.67-.49-3.12-2.75-5.77-6.69-7.88a19.44,19.44,0,0,0-2.42-1.09h2c7.83,0,16,4,21.81,10.82.55.64,1.09,1.32,1.6,2a30.08,30.08,0,0,1,2.65,4.3,34.35,34.35,0,0,1-1.68,33.57l0,.06h0l-.73.47a26.46,26.46,0,0,0-6.12,5.75.39.39,0,0,0-.14,0,26.55,26.55,0,0,1-11.62,3A16.33,16.33,0,0,1,7.66,63.65,30.8,30.8,0,0,1,5,59.87a14.91,14.91,0,0,0,5.59,1,46.21,46.21,0,0,0,6.52-.63,46.19,46.19,0,0,1,6.5-.63,14.38,14.38,0,0,1,5.91,1.12l.17.07.17.08c.27.12.55.27.83.43a2.39,2.39,0,0,0,.68.2,6.77,6.77,0,0,0,1.17.12,1.26,1.26,0,0,0,.68-.12l.06,0v0a.28.28,0,0,0,.07-.21h0a.27.27,0,0,0,0-.1Z"/><polygon class="cls-3" points="57.28 84.73 60.12 84.73 60.32 84.98 70.42 107.43 80.59 84.81 83.57 84.73 70.42 113.97 57.28 84.73"/><path class="cls-4" d="M83.37,84.86l-13,28.8L57.48,84.86h2.64l.08.18,10.21,22.72L80.71,84.86h2.66m.41-.26H80.54l-.07.16L70.41,107.11l-10-22.18-.08-.18-.07-.15H57.08l.17.37,12.93,28.8.24.53.24-.53,13-28.8.17-.37Z"/><rect class="cls-5" x="99.99" y="84.73" width="2.75" height="27.99"/><path class="cls-6" d="M102.6,84.86v27.73h-2.49V84.86h2.49m.26-.26h-3v28.26h3V84.6Z"/><polygon class="cls-7" points="119.15 84.73 122 84.73 122.19 84.98 132.28 107.43 142.46 84.81 145.44 84.73 132.28 113.97 119.15 84.73"/><path class="cls-8" d="M145.24,84.86l-13,28.8-12.93-28.8H122l.08.18,10.21,22.72,10.29-22.89h2.66m.41-.26h-3.24l-.07.16-10.05,22.35-10-22.18-.08-.17-.07-.16h-3.22l.17.37L132,113.77l.24.53.24-.53L145.47,85l.17-.37Z"/><polygon class="cls-9" points="181.4 112.72 181.21 112.47 171.11 90.03 160.94 112.65 157.96 112.72 171.11 83.47 184.25 112.72 181.4 112.72"/><path class="cls-10" d="M171.11,83.8,184,112.59H181.4l-.08-.18L171.11,89.71l-10.29,22.89h-2.66l13-28.8m0-.64-.24.53-13,28.8-.17.37H161l.07-.16,10.05-22.35,10,22.18.08.17.07.16h3.21l-.17-.37-12.93-28.8-.24-.53Z"/><polygon class="cls-11" points="353.45 113.04 353.25 112.78 343.17 90.34 332.99 112.96 330 113.04 343.17 83.79 356.29 113.04 353.45 113.04"/><path class="cls-12" d="M343.17,84.11l12.93,28.8h-2.64l-.08-.18L343.17,90l-10.3,22.89h-2.66l13-28.8m0-.64-.24.54-13,28.8-.17.37H333l.07-.16,10.06-22.35,10,22.18.08.18.07.15h3.21l-.17-.37L343.4,84l-.24-.54Z"/><polygon class="cls-13" points="200.25 112.72 200.25 84.73 202.99 84.73 202.99 110.36 216 110.36 216 112.72 200.25 112.72"/><path class="cls-14" d="M202.86,84.86v25.63h13v2.1H200.38V84.86h2.48m.26-.26h-3v28.26h16v-2.62h-13V84.6Z"/><rect class="cls-15" x="233.48" y="84.73" width="2.75" height="27.99"/><path class="cls-16" d="M236.09,84.86v27.73h-2.48V84.86h2.48m.26-.26h-3v28.26h3V84.6Z"/><polygon class="cls-17" points="274.49 112.72 257.71 89.25 257.71 112.72 254.96 112.72 254.96 84.73 257.69 84.73 274.28 107.97 274.28 84.73 277.02 84.73 277.02 112.72 274.49 112.72"/><path class="cls-18" d="M276.89,84.86v27.73h-2.34l-.09-.13L257.58,88.84v23.76h-2.48V84.86h2.53l.09.13,16.7,23.4V84.86h2.48m.26-.26h-3v23L257.93,84.83l-.09-.13-.08-.11h-2.93v28.26h3V89.65l16.41,23,.09.13.08.11h2.74V84.6Z"/><path class="cls-19" d="M295.35,112.72v-28l2.61,0c5.52,0,9.88,1.31,13,3.81,3.44,2.8,5.19,6.21,5.19,10.16a12.74,12.74,0,0,1-5.19,10.16c-3.07,2.49-7.43,3.77-13,3.8l-.29,0Zm2.74-2.41c4.72,0,8.39-1.1,10.91-3.16a10.38,10.38,0,0,0,0-16.85c-2.52-2-6.19-3.1-10.91-3.15Z"/><path class="cls-20" d="M295.48,84.86l2.48,0c5.49,0,9.83,1.29,12.88,3.78a12.42,12.42,0,0,1,0,20.12c-3,2.48-7.38,3.74-12.88,3.77l-.3,0h-2.18V84.86M298,110.44c4.81,0,8.55-1.1,11.13-3.19a10.51,10.51,0,0,0,0-17.05C306.51,88.11,302.77,87,298,87v23.42m-2.74-25.85v28.26h2.45l.32,0c5.54,0,9.93-1.31,13-3.82a12.69,12.69,0,0,0,0-20.53c-3.1-2.52-7.49-3.81-13-3.83l-2.48,0Zm3,25.59V87.29c4.62.06,8.22,1.1,10.7,3.11a10.25,10.25,0,0,1,0,16.65c-2.48,2-6.07,3.07-10.7,3.13Z"/></g></g></svg>