<svg klickart-edit-icon="svg" fill="rgb(98, 173, 12)" xmlns="http://www.w3.org/2000/svg" version="1.1" id="Layer_1" x="0px" y="0px" width="270px" height="270px" viewbox="1011.466 0 270 270" enable-background="new 1011.466 0 270 270" xml:space="preserve" xmlns:xlink="http://www.w3.org/1999/xlink"><g><path d="M1132.807,91.453c-0.11-0.135-0.27-0.22-0.443-0.237c-0.174-0.016-0.346,0.037-0.479,0.151c-0.845,0.713-1.944,1.675-2.959,2.792c-1.101,1.21-2.1,2.514-2.965,3.881c-1.065,1.681-1.904,3.378-2.496,5.047c-0.248,0.699-0.564,1.624-0.807,2.578c-0.169,0.665-0.311,1.338-0.429,1.913c-0.035,0.171,0,0.347,0.095,0.49c0.095,0.144,0.244,0.243,0.413,0.279l2.352,0.473c0.041,0.008,0.083,0.012,0.125,0.012c0.002,0,0.004,0,0.005,0c0.501,0,0.604-0.378,0.732-0.854c0.059-0.218,0.133-0.498,0.198-0.742c0.07-0.261,0.127-0.481,0.141-0.53c0.474-1.601,1.161-3.208,2.045-4.776c0.802-1.425,1.791-2.785,3.024-4.159c1.087-1.214,2.336-2.235,3.302-2.993c0.137-0.106,0.226-0.265,0.245-0.437c0.02-0.175-0.031-0.348-0.141-0.483L1132.807,91.453z"></path><path d="M1156.18,98.217c-0.32-0.14-0.695-0.029-0.888,0.262l-9.676,14.589c-1.188,0.499-2.194,1.435-2.749,2.71c-1.145,2.628,0.057,5.686,2.686,6.831c2.627,1.146,5.687-0.057,6.831-2.685c0.556-1.274,0.558-2.65,0.115-3.86l4.095-17.017C1156.676,98.706,1156.502,98.357,1156.18,98.217z"></path><path d="M1127.729,123.817c-0.191-0.384-0.368-0.778-0.53-1.147c-0.311-0.711-0.604-1.517-0.92-2.529c-0.509-1.633-0.74-3.328-0.899-4.77c-0.019-0.172-0.107-0.333-0.245-0.439c-0.137-0.109-0.311-0.155-0.485-0.134l-2.096,0.273c-0.173,0.023-0.33,0.115-0.435,0.254c-0.105,0.139-0.149,0.315-0.124,0.487l0.042,0.28c0.31,2.066,0.71,3.732,1.257,5.238c0.281,0.772,0.625,1.679,1.051,2.56c0.285,0.587,0.604,1.2,1.033,1.981c0.083,0.152,0.223,0.271,0.389,0.319c0.059,0.017,0.119,0.025,0.18,0.025c0.109,0,0.218-0.034,0.315-0.088l1.508-0.837c0.303-0.167,0.421-0.546,0.266-0.857L1127.729,123.817z"></path><path d="M1158.344,86.798l-0.164-0.053c-1.859-0.604-3.522-1-5.085-1.21c-1.293-0.176-2.638-0.263-4-0.263c-0.46,0-0.934,0.01-1.406,0.031c-1.338,0.055-2.704,0.228-4.061,0.518c-0.991,0.209-1.858,0.435-2.652,0.687c-0.592,0.188-1.162,0.39-1.837,0.638c-0.162,0.06-0.293,0.181-0.366,0.338c-0.072,0.157-0.079,0.337-0.019,0.497l1.188,3.197c0.062,0.162,0.186,0.292,0.344,0.365c0.231,0.107,0.609-0.032,0.668-0.051c0.875-0.282,1.601-0.485,2.283-0.638c0.992-0.221,1.801-0.355,2.545-0.422c0.537-0.05,1.117-0.089,1.822-0.124c0.18-0.009,0.366-0.014,0.57-0.014c0.462,0,0.927,0.023,1.444,0.05c0.8,0.042,1.645,0.144,2.656,0.323c1.296,0.227,2.622,0.604,4.302,1.225c0.072,0.026,0.149,0.039,0.225,0.039c0.094,0,0.189-0.021,0.277-0.062c0.157-0.074,0.279-0.209,0.336-0.374l1.339-3.867c0.057-0.163,0.045-0.344-0.03-0.5C1158.646,86.97,1158.509,86.852,1158.344,86.798z"></path><path d="M1146.466,10c-69.036,0-125,55.964-125,125c0,69.035,55.964,125,125,125c69.035,0,125-55.965,125-125C1271.466,65.964,1215.501,10,1146.466,10z M1197.577,131.862c-1.587,3.357-3.906,6.765-6.362,10.374c-5.628,8.272-12.005,17.642-8.937,27.243c0.227,0.709,0.028,1.484-0.509,1.998l-34.756,33.17c-0.367,0.35-0.849,0.537-1.342,0.537c-0.177,0-0.356-0.024-0.531-0.074c-0.662-0.188-1.176-0.712-1.35-1.379c-2.141-8.211-8.065-21.922-14.846-23.76c-0.57-0.155-1.304-0.229-2.243-0.229c-1.68,0-3.78,0.242-6.003,0.499c-2.594,0.3-5.274,0.61-7.783,0.61c-5.644,0-8.679-1.749-9.278-5.346c-0.348-2.085-0.626-4.23-0.894-6.304c-1.131-8.733-2.3-17.759-9.029-22.345c-3.938-2.683-0.715-8.363,2.402-13.857c2.075-3.656,4.22-7.436,3.891-9.887c-0.123-0.913-0.246-1.812-0.368-2.699c-1.983-14.42-3.548-25.804,8.432-38.127c0.02-0.021,0.041-0.041,0.062-0.061c12.284-11.554,25.619-17.412,39.632-17.412c20.958,0,37.005,13.082,43.183,20.812C1199.623,96.482,1204.894,116.375,1197.577,131.862z"></path><path d="M1176.477,115.211l-5.303-0.552c-0.334-0.035-0.64,0.191-0.704,0.521l-0.289,1.477c-0.134,0.653-0.31,1.285-0.496,1.952c-0.058,0.209-0.116,0.419-0.174,0.629c-0.318,1.177-1.203,3.147-1.891,4.215c-0.099,0.154-0.129,0.341-0.082,0.519c0.047,0.176,0.165,0.323,0.326,0.409l5.11,2.674c0.094,0.049,0.198,0.074,0.302,0.074c0.067,0,0.135-0.01,0.199-0.031c0.166-0.053,0.304-0.172,0.381-0.327l0.437-0.879c0.759-1.516,1.38-3.191,1.904-5.117c0.479-1.763,0.71-3.515,0.858-4.844c0.018-0.171-0.032-0.344-0.14-0.478C1176.808,115.316,1176.649,115.231,1176.477,115.211z"></path><path d="M1169.835,106.732c0.143,0.572,0.283,1.195,0.428,1.906c0.035,0.171,0.137,0.319,0.284,0.414c0.105,0.068,0.227,0.104,0.352,0.104c0.046,0,0.095-0.005,0.142-0.017l4.956-1.115c0.17-0.04,0.318-0.145,0.41-0.293c0.091-0.148,0.12-0.327,0.078-0.497c-0.409-1.662-0.829-3.021-1.322-4.275c-0.603-1.533-1.383-3.061-2.385-4.675c-0.428-0.693-0.932-1.409-1.582-2.252c-0.587-0.761-1.191-1.461-1.796-2.081c-0.522-0.534-1.216-1.23-1.975-1.881c-0.526-0.452-1.069-0.879-1.537-1.247c-0.135-0.106-0.308-0.154-0.479-0.133c-0.171,0.022-0.328,0.109-0.433,0.246l-2.691,3.464c-0.212,0.274-0.172,0.669,0.094,0.894c0,0.001,0.497,0.421,0.731,0.625c0.567,0.493,1.139,1.06,1.748,1.732c0.691,0.764,1.21,1.407,1.634,2.022c1.085,1.572,1.906,3.075,2.515,4.595C1169.393,105.228,1169.655,106.011,1169.835,106.732z"></path></g></svg>